<?xml version="1.0" encoding="utf-8"?>
<!-- Generator: Adobe Illustrator 16.0.0, SVG Export Plug-In . SVG Version: 6.00 Build 0)  -->
<!DOCTYPE svg PUBLIC "-//W3C//DTD SVG 1.1//EN" "http://www.w3.org/Graphics/SVG/1.1/DTD/svg11.dtd">
<svg version="1.1" id="Workflow_Icon" xmlns="http://www.w3.org/2000/svg" xmlns:xlink="http://www.w3.org/1999/xlink" x="0px"
	 y="0px" width="512px" height="512px" viewBox="0 0 512 512" enable-background="new 0 0 512 512" xml:space="preserve">
<path id="Background" d="M512,443c0,38.107-30.893,69-69,69H69c-38.107,0-69-30.893-69-69V69C0,30.893,30.893,0,69,0h374
	c38.107,0,69,30.893,69,69V443z"/>
<g id="Imgur_Logo">
	<path id="Pill" fill="#FFFFFF" d="M298.896,400.499c0,20.88-3.467,36.334-10.422,46.335c-6.953,10.01-17.642,15.015-32.074,15.015
		c-14.614,0-25.483-5.053-32.609-15.14c-7.13-10.096-10.693-25.502-10.693-46.21V231.065c0-20.708,3.52-36.066,10.559-46.076
		c7.04-10.01,17.952-15.015,32.743-15.015c14.433,0,25.121,5.005,32.074,15.015c6.955,10.01,10.422,25.369,10.422,46.076V400.499z"
		/>
	<path id="Dot" fill="#89C540" d="M206.418,98.968c0-13.401,4.9-24.891,14.7-34.461c9.8-9.571,21.562-14.356,35.283-14.356
		c13.544,0,25.121,4.786,34.748,14.356c9.619,9.57,14.435,21.061,14.435,34.461c0,13.573-4.769,25.063-14.299,34.462
		c-9.532,9.399-21.166,14.098-34.882,14.098c-14.079,0-25.928-4.699-35.551-14.098S206.418,112.541,206.418,98.968z"/>
</g>
</svg>
